<svg width="152" height="32" fill="none" xmlns="http://www.w3.org/2000/svg"><path d="M21.734 7.54a1 1 0 01.98-.803h23.224a1 1 0 01.98 1.196l-4.652 23.263a1 1 0 01-.98.804H18.061a1 1 0 01-.981-1.196L21.734 7.54z" fill="#041E8C"/><path d="M13.313 4.172a1 1 0 01.98-.804h23.224a1 1 0 01.98 1.197l-4.652 23.263a1 1 0 01-.98.804H9.64a1 1 0 01-.98-1.197l4.652-23.263z" fill="#3E64FF"/><path d="M4.892.804A1 1 0 015.872 0h23.224a1 1 0 01.98 1.196L25.425 24.46a1 1 0 01-.98.804H1.22a1 1 0 01-.98-1.196L4.891.804z" fill="#fff"/><path d="M57.66 23.579h-3.462l3.714-16.85h3.587l-2.4 10.964L69.306 6.729h3.688l-3.714 16.85h-3.612l2.526-11.368-10.535 11.368zm29.292 0h-3.208l1.718-7.933-4.977 7.933H79.02l-1.567-7.933-1.718 7.933h-3.208l2.678-12.202h4.093l1.39 7.276 4.572-7.276h4.37l-2.678 12.202zm14.66 0h-3.209l2.122-9.398h-5.027l-2.147 9.398h-3.209l2.78-12.202h11.469l-2.779 12.202zm10.613.303c-1.735 0-3.032-.64-3.891-1.92l-1.389 6.265h-3.209l3.739-16.85h3.209l-.354 1.516c1.027-1.213 2.257-1.82 3.688-1.82 1.398 0 2.518.447 3.36 1.34.843.892 1.264 2.13 1.264 3.713a9.305 9.305 0 01-.733 3.638 7.033 7.033 0 01-2.223 2.93c-.994.792-2.148 1.188-3.461 1.188zm-.531-2.855c1.044 0 1.903-.412 2.577-1.237.674-.842 1.011-1.845 1.011-3.007 0-.859-.253-1.55-.758-2.071-.506-.522-1.154-.784-1.946-.784-1.077 0-2.012.489-2.804 1.466l-.935 4.244c.607.926 1.558 1.39 2.855 1.39zm14.299 2.855c-1.903 0-3.385-.514-4.446-1.54-1.061-1.028-1.592-2.359-1.592-3.992 0-1.954.674-3.655 2.022-5.104 1.347-1.448 3.023-2.172 5.027-2.172 1.903 0 3.385.522 4.446 1.566 1.078 1.027 1.617 2.358 1.617 3.992 0 1.953-.674 3.654-2.021 5.103-1.347 1.431-3.032 2.147-5.053 2.147zm.127-2.855c1.044 0 1.903-.42 2.577-1.263.69-.842 1.035-1.835 1.035-2.98 0-.893-.252-1.592-.758-2.098-.505-.505-1.195-.758-2.071-.758-1.044 0-1.912.43-2.602 1.289-.691.842-1.036 1.827-1.036 2.956 0 .892.253 1.591.758 2.097.505.505 1.204.758 2.097.758zm22.313 2.552h-3.209l1.718-7.933-4.977 7.933H140.5l-1.566-7.933-1.718 7.933h-3.209l2.678-12.202h4.093l1.389 7.276 4.573-7.276h4.37l-2.677 12.202z" fill="currentColor"/></svg>